<svg width="444" height="108" viewBox="0 0 444 108" fill="none" xmlns="http://www.w3.org/2000/svg">
<g filter="url(#filter0_d_17_54)">
<path d="M78 57C72.4209 57 67.5196 55.8239 63.2961 53.4718C59.1248 51.0674 55.8659 47.7221 53.5196 43.436C51.1732 39.1499 50 34.1582 50 28.4608C50 22.7111 51.1471 17.7194 53.4413 13.4856C55.7877 9.19945 59.0726 5.88033 63.2961 3.5282C67.5196 1.17607 72.4209 0 78 0C83.5791 0 88.4544 1.17607 92.6257 3.5282C96.8492 5.88033 100.134 9.19945 102.48 13.4856C104.827 17.7194 106 22.7111 106 28.4608C106 34.1582 104.827 39.1499 102.48 43.436C100.134 47.7221 96.8492 51.0674 92.6257 53.4718C88.4544 55.8239 83.5791 57 78 57ZM78 44.9257C82.067 44.9257 85.2477 43.4883 87.5419 40.6135C89.8883 37.6864 91.0615 33.6355 91.0615 28.4608C91.0615 23.2861 89.9143 19.2613 87.6201 16.3865C85.3259 13.5117 82.1192 12.0743 78 12.0743C73.8808 12.0743 70.6741 13.5117 68.3799 16.3865C66.0857 19.2613 64.9385 23.2861 64.9385 28.4608C64.9385 33.6355 66.0857 37.6864 68.3799 40.6135C70.6741 43.4883 73.8808 44.9257 78 44.9257Z" fill="#F88C95"/>
</g>
<g filter="url(#filter1_d_17_54)">
<path d="M119 57C113.421 57 108.52 55.8239 104.296 53.4718C100.125 51.0674 96.8659 47.7221 94.5196 43.436C92.1732 39.1499 91 34.1582 91 28.4608C91 22.7111 92.1471 17.7194 94.4413 13.4856C96.7877 9.19945 100.073 5.88033 104.296 3.5282C108.52 1.17607 113.421 0 119 0C124.579 0 129.454 1.17607 133.626 3.5282C137.849 5.88033 141.134 9.19945 143.48 13.4856C145.827 17.7194 147 22.7111 147 28.4608C147 34.1582 145.827 39.1499 143.48 43.436C141.134 47.7221 137.849 51.0674 133.626 53.4718C129.454 55.8239 124.579 57 119 57ZM119 44.9257C123.067 44.9257 126.248 43.4883 128.542 40.6135C130.888 37.6864 132.061 33.6355 132.061 28.4608C132.061 23.2861 130.914 19.2613 128.62 16.3865C126.326 13.5117 123.119 12.0743 119 12.0743C114.881 12.0743 111.674 13.5117 109.38 16.3865C107.086 19.2613 105.939 23.2861 105.939 28.4608C105.939 33.6355 107.086 37.6864 109.38 40.6135C111.674 43.4883 114.881 44.9257 119 44.9257Z" fill="#05A9D4"/>
</g>
<g filter="url(#filter2_d_17_54)">
<path fill-rule="evenodd" clip-rule="evenodd" d="M188 54.3399C191.822 56.1133 196.156 57 201 57C206.579 57 211.454 55.8239 215.626 53.4718C219.849 51.0674 223.134 47.7221 225.48 43.436C227.827 39.1499 229 34.1582 229 28.4608C229 22.7111 227.827 17.7194 225.48 13.4856C223.134 9.19945 219.849 5.88033 215.626 3.5282C211.454 1.17607 206.579 0 201 0C195.421 0 190.52 1.17607 186.296 3.5282C182.073 5.88033 178.788 9.19945 176.441 13.4856C174.147 17.7194 173 22.7111 173 28.4608C173 29.3958 173.032 30.3118 173.095 31.2088C173.032 31.71 173 32.2407 173 32.8008V77.1992C173 79.7441 173.652 81.6805 174.957 83.0083C176.261 84.3361 178.109 85 180.5 85C182.946 85 184.793 84.3361 186.043 83.0083C187.348 81.6805 188 79.7441 188 77.1992V54.3399ZM210.542 40.6135C208.248 43.4883 205.067 44.9257 201 44.9257C196.881 44.9257 193.674 43.4883 191.38 40.6135C189.086 37.6864 187.939 33.6355 187.939 28.4608C187.939 23.2861 189.086 19.2613 191.38 16.3865C193.674 13.5117 196.881 12.0743 201 12.0743C205.119 12.0743 208.326 13.5117 210.62 16.3865C212.914 19.2613 214.061 23.2861 214.061 28.4608C214.061 33.6355 212.888 37.6864 210.542 40.6135Z" fill="#32EEC4"/>
</g>
<g filter="url(#filter3_d_17_54)">
<path d="M160 57C154.421 57 149.52 55.8239 145.296 53.4718C141.125 51.0674 137.866 47.7221 135.52 43.436C133.173 39.1499 132 34.1582 132 28.4608C132 22.7111 133.147 17.7194 135.441 13.4856C137.788 9.19945 141.073 5.88033 145.296 3.5282C149.52 1.17607 154.421 0 160 0C165.579 0 170.454 1.17607 174.626 3.5282C178.849 5.88033 182.134 9.19945 184.48 13.4856C186.827 17.7194 188 22.7111 188 28.4608C188 34.1582 186.827 39.1499 184.48 43.436C182.134 47.7221 178.849 51.0674 174.626 53.4718C170.454 55.8239 165.579 57 160 57ZM160 44.9257C164.067 44.9257 167.248 43.4883 169.542 40.6135C171.888 37.6864 173.061 33.6355 173.061 28.4608C173.061 23.2861 171.914 19.2613 169.62 16.3865C167.326 13.5117 164.119 12.0743 160 12.0743C155.881 12.0743 152.674 13.5117 150.38 16.3865C148.086 19.2613 146.939 23.2861 146.939 28.4608C146.939 33.6355 148.086 37.6864 150.38 40.6135C152.674 43.4883 155.881 44.9257 160 44.9257Z" fill="#05A9D4"/>
</g>
<g filter="url(#filter4_d_17_54)">
<path d="M242.562 57C240.014 57 238.09 56.2993 236.789 54.8979C235.542 53.4965 235 51.7177 235.163 49.5617C235.325 47.4057 236.301 45.2227 238.09 43.0128L262.728 12.2085H241.424C237.141 12.2085 235 10.1603 235 6.06383C235 2.02128 237.141 0 241.424 0H273.137C275.685 0 277.609 0.70071 278.91 2.10213C280.211 3.50355 280.753 5.28227 280.536 7.4383C280.374 9.59433 279.398 11.7773 277.609 13.9872L252.889 44.7915H275.576C279.859 44.7915 282 46.8128 282 50.8553C282 54.9518 279.859 57 275.576 57H242.562Z" fill="#1977A7"/>
</g>
<g filter="url(#filter5_d_17_54)">
<path d="M310 57C304.421 57 299.52 55.8239 295.296 53.4718C291.125 51.0674 287.866 47.7221 285.52 43.436C283.173 39.1499 282 34.1582 282 28.4608C282 22.7111 283.147 17.7194 285.441 13.4856C287.788 9.19945 291.073 5.88033 295.296 3.5282C299.52 1.17607 304.421 0 310 0C315.579 0 320.454 1.17607 324.626 3.5282C328.849 5.88033 332.134 9.19945 334.48 13.4856C336.827 17.7194 338 22.7111 338 28.4608C338 34.1582 336.827 39.1499 334.48 43.436C332.134 47.7221 328.849 51.0674 324.626 53.4718C320.454 55.8239 315.579 57 310 57ZM310 44.9257C314.067 44.9257 317.248 43.4883 319.542 40.6135C321.888 37.6864 323.061 33.6355 323.061 28.4608C323.061 23.2861 321.914 19.2613 319.62 16.3865C317.326 13.5117 314.119 12.0743 310 12.0743C305.881 12.0743 302.674 13.5117 300.38 16.3865C298.086 19.2613 296.939 23.2861 296.939 28.4608C296.939 33.6355 298.086 37.6864 300.38 40.6135C302.674 43.4883 305.881 44.9257 310 44.9257Z" fill="#1977A7"/>
</g>
<g filter="url(#filter6_d_17_54)">
<path d="M350.836 57C346.279 57 344 54.7137 344 50.1411V7.17427C344 4.86169 344.583 3.10097 345.749 1.89212C346.915 0.630705 348.452 0 350.359 0C352.055 0 353.353 0.315353 354.254 0.94606C355.208 1.57676 356.295 2.62794 357.514 4.09958L380.486 32.5602V6.78008C380.486 2.26003 382.739 0 387.243 0C389.469 0 391.138 0.604426 392.251 1.81328C393.417 2.96957 394 4.62517 394 6.78008V50.4564C394 52.4537 393.47 54.0567 392.41 55.2656C391.35 56.4219 389.919 57 388.118 57C386.316 57 384.885 56.6846 383.825 56.0539C382.818 55.4232 381.732 54.3721 380.566 52.9004L357.593 24.4398V50.1411C357.593 54.7137 355.341 57 350.836 57Z" fill="#1977A7"/>
</g>
<g filter="url(#filter7_d_17_54)">
<path d="M407.574 56C402.525 56 400 53.4846 400 48.4539V7.5461C400 2.51537 402.525 0 407.574 0H434.32C438.107 0 440 1.85343 440 5.56028C440 9.37305 438.107 11.2794 434.32 11.2794H413.886V21.9234H432.584C436.371 21.9234 438.264 23.8033 438.264 27.5631C438.264 31.3229 436.371 33.2028 432.584 33.2028H413.886V44.7206H434.32C438.107 44.7206 440 46.6005 440 50.3603C440 54.1201 438.107 56 434.32 56H407.574Z" fill="#1977A7"/>
</g>
<g filter="url(#filter8_d_17_54)">
<path d="M11.574 56C6.52466 56 4 53.4846 4 48.4539V7.5461C4 2.51537 6.52466 0 11.574 0H38.3195C42.1065 0 44 1.85343 44 5.56028C44 9.37305 42.1065 11.2794 38.3195 11.2794H17.8856V21.9234H36.5838C40.3708 21.9234 42.2643 23.8033 42.2643 27.5631C42.2643 31.3229 40.3708 33.2028 36.5838 33.2028H17.8856V44.7206H38.3195C42.1065 44.7206 44 46.6005 44 50.3603C44 54.1201 42.1065 56 38.3195 56H11.574Z" fill="#1977A7"/>
</g>
<g filter="url(#filter9_d_17_54)">
<line x1="166.776" y1="99.4472" x2="164.776" y2="98.4472" stroke="black"/>
</g>
<defs>
<filter id="filter0_d_17_54" x="46" y="0" width="64" height="65" filterUnits="userSpaceOnUse" color-interpolation-filters="sRGB">
<feFlood flood-opacity="0" result="BackgroundImageFix"/>
<feColorMatrix in="SourceAlpha" type="matrix" values="0 0 0 0 0 0 0 0 0 0 0 0 0 0 0 0 0 0 127 0" result="hardAlpha"/>
<feOffset dy="4"/>
<feGaussianBlur stdDeviation="2"/>
<feComposite in2="hardAlpha" operator="out"/>
<feColorMatrix type="matrix" values="0 0 0 0 0 0 0 0 0 0 0 0 0 0 0 0 0 0 0.25 0"/>
<feBlend mode="normal" in2="BackgroundImageFix" result="effect1_dropShadow_17_54"/>
<feBlend mode="normal" in="SourceGraphic" in2="effect1_dropShadow_17_54" result="shape"/>
</filter>
<filter id="filter1_d_17_54" x="87" y="0" width="64" height="65" filterUnits="userSpaceOnUse" color-interpolation-filters="sRGB">
<feFlood flood-opacity="0" result="BackgroundImageFix"/>
<feColorMatrix in="SourceAlpha" type="matrix" values="0 0 0 0 0 0 0 0 0 0 0 0 0 0 0 0 0 0 127 0" result="hardAlpha"/>
<feOffset dy="4"/>
<feGaussianBlur stdDeviation="2"/>
<feComposite in2="hardAlpha" operator="out"/>
<feColorMatrix type="matrix" values="0 0 0 0 0 0 0 0 0 0 0 0 0 0 0 0 0 0 0.25 0"/>
<feBlend mode="normal" in2="BackgroundImageFix" result="effect1_dropShadow_17_54"/>
<feBlend mode="normal" in="SourceGraphic" in2="effect1_dropShadow_17_54" result="shape"/>
</filter>
<filter id="filter2_d_17_54" x="169" y="0" width="64" height="93" filterUnits="userSpaceOnUse" color-interpolation-filters="sRGB">
<feFlood flood-opacity="0" result="BackgroundImageFix"/>
<feColorMatrix in="SourceAlpha" type="matrix" values="0 0 0 0 0 0 0 0 0 0 0 0 0 0 0 0 0 0 127 0" result="hardAlpha"/>
<feOffset dy="4"/>
<feGaussianBlur stdDeviation="2"/>
<feComposite in2="hardAlpha" operator="out"/>
<feColorMatrix type="matrix" values="0 0 0 0 0 0 0 0 0 0 0 0 0 0 0 0 0 0 0.25 0"/>
<feBlend mode="normal" in2="BackgroundImageFix" result="effect1_dropShadow_17_54"/>
<feBlend mode="normal" in="SourceGraphic" in2="effect1_dropShadow_17_54" result="shape"/>
</filter>
<filter id="filter3_d_17_54" x="128" y="0" width="64" height="65" filterUnits="userSpaceOnUse" color-interpolation-filters="sRGB">
<feFlood flood-opacity="0" result="BackgroundImageFix"/>
<feColorMatrix in="SourceAlpha" type="matrix" values="0 0 0 0 0 0 0 0 0 0 0 0 0 0 0 0 0 0 127 0" result="hardAlpha"/>
<feOffset dy="4"/>
<feGaussianBlur stdDeviation="2"/>
<feComposite in2="hardAlpha" operator="out"/>
<feColorMatrix type="matrix" values="0 0 0 0 0 0 0 0 0 0 0 0 0 0 0 0 0 0 0.25 0"/>
<feBlend mode="normal" in2="BackgroundImageFix" result="effect1_dropShadow_17_54"/>
<feBlend mode="normal" in="SourceGraphic" in2="effect1_dropShadow_17_54" result="shape"/>
</filter>
<filter id="filter4_d_17_54" x="231" y="0" width="55" height="65" filterUnits="userSpaceOnUse" color-interpolation-filters="sRGB">
<feFlood flood-opacity="0" result="BackgroundImageFix"/>
<feColorMatrix in="SourceAlpha" type="matrix" values="0 0 0 0 0 0 0 0 0 0 0 0 0 0 0 0 0 0 127 0" result="hardAlpha"/>
<feOffset dy="4"/>
<feGaussianBlur stdDeviation="2"/>
<feComposite in2="hardAlpha" operator="out"/>
<feColorMatrix type="matrix" values="0 0 0 0 0 0 0 0 0 0 0 0 0 0 0 0 0 0 0.25 0"/>
<feBlend mode="normal" in2="BackgroundImageFix" result="effect1_dropShadow_17_54"/>
<feBlend mode="normal" in="SourceGraphic" in2="effect1_dropShadow_17_54" result="shape"/>
</filter>
<filter id="filter5_d_17_54" x="278" y="0" width="64" height="65" filterUnits="userSpaceOnUse" color-interpolation-filters="sRGB">
<feFlood flood-opacity="0" result="BackgroundImageFix"/>
<feColorMatrix in="SourceAlpha" type="matrix" values="0 0 0 0 0 0 0 0 0 0 0 0 0 0 0 0 0 0 127 0" result="hardAlpha"/>
<feOffset dy="4"/>
<feGaussianBlur stdDeviation="2"/>
<feComposite in2="hardAlpha" operator="out"/>
<feColorMatrix type="matrix" values="0 0 0 0 0 0 0 0 0 0 0 0 0 0 0 0 0 0 0.25 0"/>
<feBlend mode="normal" in2="BackgroundImageFix" result="effect1_dropShadow_17_54"/>
<feBlend mode="normal" in="SourceGraphic" in2="effect1_dropShadow_17_54" result="shape"/>
</filter>
<filter id="filter6_d_17_54" x="340" y="0" width="58" height="65" filterUnits="userSpaceOnUse" color-interpolation-filters="sRGB">
<feFlood flood-opacity="0" result="BackgroundImageFix"/>
<feColorMatrix in="SourceAlpha" type="matrix" values="0 0 0 0 0 0 0 0 0 0 0 0 0 0 0 0 0 0 127 0" result="hardAlpha"/>
<feOffset dy="4"/>
<feGaussianBlur stdDeviation="2"/>
<feComposite in2="hardAlpha" operator="out"/>
<feColorMatrix type="matrix" values="0 0 0 0 0 0 0 0 0 0 0 0 0 0 0 0 0 0 0.25 0"/>
<feBlend mode="normal" in2="BackgroundImageFix" result="effect1_dropShadow_17_54"/>
<feBlend mode="normal" in="SourceGraphic" in2="effect1_dropShadow_17_54" result="shape"/>
</filter>
<filter id="filter7_d_17_54" x="396" y="0" width="48" height="64" filterUnits="userSpaceOnUse" color-interpolation-filters="sRGB">
<feFlood flood-opacity="0" result="BackgroundImageFix"/>
<feColorMatrix in="SourceAlpha" type="matrix" values="0 0 0 0 0 0 0 0 0 0 0 0 0 0 0 0 0 0 127 0" result="hardAlpha"/>
<feOffset dy="4"/>
<feGaussianBlur stdDeviation="2"/>
<feComposite in2="hardAlpha" operator="out"/>
<feColorMatrix type="matrix" values="0 0 0 0 0 0 0 0 0 0 0 0 0 0 0 0 0 0 0.25 0"/>
<feBlend mode="normal" in2="BackgroundImageFix" result="effect1_dropShadow_17_54"/>
<feBlend mode="normal" in="SourceGraphic" in2="effect1_dropShadow_17_54" result="shape"/>
</filter>
<filter id="filter8_d_17_54" x="0" y="0" width="48" height="64" filterUnits="userSpaceOnUse" color-interpolation-filters="sRGB">
<feFlood flood-opacity="0" result="BackgroundImageFix"/>
<feColorMatrix in="SourceAlpha" type="matrix" values="0 0 0 0 0 0 0 0 0 0 0 0 0 0 0 0 0 0 127 0" result="hardAlpha"/>
<feOffset dy="4"/>
<feGaussianBlur stdDeviation="2"/>
<feComposite in2="hardAlpha" operator="out"/>
<feColorMatrix type="matrix" values="0 0 0 0 0 0 0 0 0 0 0 0 0 0 0 0 0 0 0.25 0"/>
<feBlend mode="normal" in2="BackgroundImageFix" result="effect1_dropShadow_17_54"/>
<feBlend mode="normal" in="SourceGraphic" in2="effect1_dropShadow_17_54" result="shape"/>
</filter>
<filter id="filter9_d_17_54" x="160.553" y="98" width="10.4473" height="9.89441" filterUnits="userSpaceOnUse" color-interpolation-filters="sRGB">
<feFlood flood-opacity="0" result="BackgroundImageFix"/>
<feColorMatrix in="SourceAlpha" type="matrix" values="0 0 0 0 0 0 0 0 0 0 0 0 0 0 0 0 0 0 127 0" result="hardAlpha"/>
<feOffset dy="4"/>
<feGaussianBlur stdDeviation="2"/>
<feComposite in2="hardAlpha" operator="out"/>
<feColorMatrix type="matrix" values="0 0 0 0 0 0 0 0 0 0 0 0 0 0 0 0 0 0 0.25 0"/>
<feBlend mode="normal" in2="BackgroundImageFix" result="effect1_dropShadow_17_54"/>
<feBlend mode="normal" in="SourceGraphic" in2="effect1_dropShadow_17_54" result="shape"/>
</filter>
</defs>
</svg>
