<svg width="35" height="35" viewBox="0 0 35 35" fill="none" xmlns="http://www.w3.org/2000/svg">
<path d="M11.7184 32.1192V24.7685L6.23208 28.8167C7.77678 30.2549 9.64107 31.3735 11.7184 32.1192V32.1192ZM22.3716 32.1192C24.4489 31.3735 26.3132 30.2549 27.8579 28.8167L22.3716 24.7153V32.1192V32.1192ZM1.97083 22.3716C2.13062 22.9042 2.34368 23.3836 2.61001 23.9163L4.68737 22.3716H1.97083ZM29.4026 22.3716L31.48 23.9163C31.693 23.4369 31.9061 22.9042 32.1192 22.3716H29.4026Z" fill="#2A5F9E"/>
<path d="M12.5174 20.241H1.3849C1.5447 20.9867 1.75776 21.6791 1.97082 22.3716H4.68737L2.61001 23.9163C3.03614 24.8218 3.51553 25.6208 4.10145 26.4198L9.58781 22.3716H11.7184V23.4369L5.48636 28.0177L6.23207 28.7635L11.7184 24.7685V32.1192C12.4109 32.3855 13.1033 32.5453 13.8491 32.7051V20.241H12.5174ZM32.7051 20.241H20.2409V32.7051C20.9867 32.5453 21.6791 32.3323 22.3716 32.1192V24.7685L27.8579 28.7635C28.6036 28.071 29.2428 27.3253 29.882 26.5263L24.1826 22.3716H27.8047L31.0539 24.7685C31.2137 24.5022 31.3734 24.1826 31.48 23.9163L29.4026 22.3716H32.1192C32.3322 21.6791 32.5453 20.9867 32.7051 20.241" fill="white"/>
<path d="M4.10146 26.4198C4.52758 27.0057 4.95371 27.5383 5.4331 28.071L11.7184 23.4902V22.4248H9.58782L4.10146 26.4198ZM24.2359 22.3716L29.9353 26.5263C30.1483 26.26 30.3081 25.9936 30.5212 25.7273C30.5745 25.6741 30.5745 25.6208 30.6277 25.6208C30.7875 25.3545 31.0006 25.0349 31.1604 24.7685L27.8047 22.3716H24.2359Z" fill="#ED4C5C"/>
<path d="M22.3716 1.97095V9.3216L27.8579 5.27342C26.3132 3.83524 24.4489 2.71667 22.3716 1.97095ZM11.7184 1.97095C9.64107 2.71667 7.77678 3.83524 6.23208 5.27342L11.7184 9.37487V1.97095ZM32.1192 11.7186C31.9594 11.1859 31.7463 10.7065 31.48 10.1739L29.4026 11.7186H32.1192V11.7186ZM4.68737 11.7186L2.61001 10.1739C2.39695 10.7065 2.18389 11.1859 1.97083 11.7186H4.68737Z" fill="#2A5F9E"/>
<path d="M21.5726 13.8492H32.6518C32.492 13.1034 32.279 12.411 32.0659 11.7185H29.3494L31.4267 10.1738C31.0006 9.26832 30.5212 8.46934 29.9353 7.67035L24.5022 11.7185H22.3716V10.6532L28.6036 6.07238L27.8579 5.32667L22.3716 9.32159V1.97093C21.6791 1.7046 20.9867 1.54481 20.2409 1.38501V13.8492H21.5726ZM1.3849 13.8492H13.8491V1.38501C13.1033 1.54481 12.4109 1.75787 11.7184 1.97093V9.32159L6.23208 5.32667C5.48636 6.01912 4.84717 6.76484 4.20798 7.56382L9.9074 11.7185H6.28534L3.03614 9.32159C2.87634 9.58792 2.71654 9.90751 2.61001 10.1738L4.68737 11.7185H1.97082C1.75776 12.411 1.5447 13.1034 1.3849 13.8492Z" fill="white"/>
<path d="M29.9885 7.67028C29.5624 7.08436 29.1363 6.5517 28.6569 6.01904L22.3716 10.5999V11.6652H24.5022L29.9885 7.67028V7.67028ZM9.85413 11.7185L4.20797 7.56375C3.99491 7.83007 3.83511 8.0964 3.62205 8.36273C3.56879 8.416 3.56879 8.46926 3.51552 8.46926C3.35572 8.73559 3.14266 9.05518 2.98286 9.32151L6.23207 11.7185H9.85413Z" fill="#ED4C5C"/>
<path d="M32.7051 13.8492H20.2409V1.38502C19.2289 1.17196 18.1636 1.06543 17.045 1.06543C15.9264 1.06543 14.8611 1.17196 13.8491 1.38502V13.8492H1.3849C1.17184 14.8612 1.06531 15.9265 1.06531 17.0451C1.06531 18.1637 1.17184 19.229 1.3849 20.2411H13.8491V32.7052C14.8611 32.9183 15.9264 33.0248 17.045 33.0248C18.1636 33.0248 19.2289 32.9183 20.2409 32.7052V20.2411H32.7051C32.9182 19.229 33.0247 18.1637 33.0247 17.0451C33.0247 15.9265 32.9182 14.8612 32.7051 13.8492Z" fill="#ED4C5C"/>
</svg>
